<?xml version="1.0" encoding="UTF-8" standalone="no"?>
<svg
   class="svg-icon"
   style="width: 1em; height: 1em;vertical-align: middle;fill: currentColor;overflow: hidden;"
   viewBox="0 0 1024 1024"
   version="1.1"
   id="svg4"
   sodipodi:docname="train-21.svg"
   inkscape:version="1.2.2 (732a01da63, 2022-12-09)"
   xmlns:inkscape="http://www.inkscape.org/namespaces/inkscape"
   xmlns:sodipodi="http://sodipodi.sourceforge.net/DTD/sodipodi-0.dtd"
   xmlns="http://www.w3.org/2000/svg"
   xmlns:svg="http://www.w3.org/2000/svg">
  <defs
     id="defs8" />
  <sodipodi:namedview
     id="namedview6"
     pagecolor="#505050"
     bordercolor="#eeeeee"
     borderopacity="1"
     inkscape:showpageshadow="0"
     inkscape:pageopacity="0"
     inkscape:pagecheckerboard="0"
     inkscape:deskcolor="#505050"
     showgrid="false"
     inkscape:zoom="1.0029297"
     inkscape:cx="511.50146"
     inkscape:cy="511.50146"
     inkscape:window-width="2560"
     inkscape:window-height="1351"
     inkscape:window-x="-9"
     inkscape:window-y="-9"
     inkscape:window-maximized="1"
     inkscape:current-layer="svg4" />
  <path
     d="M512 85.333333C341.333333 85.333333 170.666667 106.666667 170.666667 256v405.333333c0 82.346667 66.986667 149.333333 149.333333 149.333334l-64 64v21.333333h95.146667l85.333333-85.333333H597.333333l85.333334 85.333333h85.333333v-21.333333l-64-64c82.346667 0 149.333333-66.986667 149.333333-149.333334V256c0-149.333333-152.746667-170.666667-341.333333-170.666667z m-192 640c-35.413333 0-64-28.586667-64-64s28.586667-64 64-64 64 28.586667 64 64-28.586667 64-64 64z m149.333333-298.666666H256v-170.666667h213.333333v170.666667z m85.333334 0v-170.666667h213.333333v170.666667H554.666667z m149.333333 298.666666c-35.413333 0-64-28.586667-64-64s28.586667-64 64-64 64 28.586667 64 64-28.586667 64-64 64z"
     id="path2" />
  <path
     style="fill:#ffffff;stroke-width:3.76849;stroke-linecap:square;stroke-linejoin:bevel"
     d="m 256.24927,885.64946 v -10.2259 l 31.90652,-31.89484 c 17.54859,-17.54215 31.90653,-32.16775 31.90653,-32.50132 0,-0.33356 -4.31085,-0.9095 -9.57967,-1.27987 -36.79864,-2.58668 -68.99649,-17.28865 -95.15596,-43.44947 -21.23666,-21.23776 -34.06222,-44.67766 -41.48678,-75.82094 -1.6788,-7.04194 -1.8022,-20.27189 -2.11579,-226.83545 -0.24498,-161.37179 -0.029,-221.86127 0.81695,-228.8296 7.03337,-57.934 44.06007,-98.39538 111.62641,-121.98111 34.23033,-11.94896 76.10952,-19.531911 133.60857,-24.192146 26.19312,-2.122924 130.46697,-3.058319 165.51509,-1.484763 116.92643,5.249646 186.67409,24.521799 227.58647,62.884979 20.1302,18.87592 32.23772,40.96293 38.81834,70.81394 l 2.30794,10.46933 v 224.84128 c 0,213.30018 -0.0927,225.27632 -1.80707,233.31646 -6.43994,30.20317 -20.00501,55.2984 -41.52351,76.81802 -26.15947,26.16082 -58.35732,40.86279 -95.15596,43.44947 -5.26882,0.37037 -9.57967,0.94631 -9.57967,1.27987 0,0.33357 14.35794,14.95917 31.90653,32.50132 l 31.90652,31.89484 v 10.2259 10.22591 H 725.6198 683.48887 l -42.8657,-42.8744 -42.86569,-42.87439 h -80.77209 -80.77208 l -42.8657,42.87439 -42.86569,42.8744 h -47.11633 -47.11632 z m 79.30755,-161.78011 c 3.26849,-0.82805 9.67308,-3.33178 14.23245,-5.56387 15.3869,-7.53283 28.04164,-23.35384 32.62699,-40.79039 2.23695,-8.50636 2.28974,-23.43457 0.11285,-31.90652 -5.62694,-21.8987 -23.04346,-39.88378 -45.01791,-46.48754 -8.2674,-2.48452 -26.63036,-2.48452 -34.89776,0 -17.26726,5.18915 -32.8751,18.22465 -40.14123,33.52551 -5.38513,11.33988 -6.72792,17.43324 -6.59175,29.91237 0.0943,8.64461 0.60688,11.9423 2.94079,18.92055 3.43068,10.2575 10.44622,21.06996 18.09331,27.8857 6.71488,5.98488 18.80979,12.48592 26.85189,14.43295 7.89262,1.91084 24.38316,1.94779 31.79037,0.0713 z m 384.22042,-0.0248 c 8.20805,-1.93484 20.13406,-8.16333 26.79833,-13.99574 11.15084,-9.75891 18.85169,-24.22293 21.18542,-39.7912 1.94606,-12.98215 0.10766,-23.99551 -6.24478,-37.41099 -7.24049,-15.29089 -22.85206,-28.33325 -40.12965,-33.52551 -8.2674,-2.48452 -26.63036,-2.48452 -34.89776,0 -21.84256,6.56411 -39.46168,24.75585 -45.02429,46.48754 -2.16251,8.44833 -2.1142,23.42081 0.10265,31.8202 5.9805,22.65936 23.60994,40.26371 46.41726,46.35116 7.21168,1.92486 23.75842,1.95845 31.79282,0.0645 z M 469.62415,341.49951 V 255.75073 H 362.43817 255.25219 v 85.74878 85.74879 h 107.18598 107.18598 z m 299.12366,0 V 255.75073 H 661.56183 554.37585 v 85.74878 85.74879 h 107.18598 107.18598 z"
     id="path414" />
</svg>
